<svg xmlns="http://www.w3.org/2000/svg" width="617.393" height="674.812" viewBox="0 0 617.393 674.812">
  <g id="Group_2468" data-name="Group 2468" transform="translate(-245.062 -189.868)" opacity="0.159">
    <path id="Path_5191" data-name="Path 5191" d="M289.29,253.344a142.317,142.317,0,0,1,98.5,62.96l36.483-25.182A186.584,186.584,0,0,0,289.29,208.674Z" transform="translate(313.551 133.324)" fill="#d4d3d2"/>
    <path id="Path_5192" data-name="Path 5192" d="M569.209,470.415a142.032,142.032,0,0,1-119.076,64.8c-78.362,0-142.115-63.753-142.115-142.115,0-68.785,49.119-126.3,114.126-139.34V208.8c-89.55,13.542-158.415,91.022-158.415,184.3,0,102.784,83.62,186.4,186.4,186.4a186.369,186.369,0,0,0,155.608-83.944Z" transform="translate(132.331 134.182)" fill="#d4d3d2"/>
    <path id="Path_5193" data-name="Path 5193" d="M290.644,305.175a291.878,291.878,0,0,1,191.072-71.017c101.15,0,190.5,51.513,243.2,129.674l36.443-25.158c-60.7-89.712-163.4-148.805-279.643-148.805A336,336,0,0,0,259.273,273.8Z" transform="translate(100.748 0)" fill="#d4d3d2"/>
    <path id="Path_5194" data-name="Path 5194" d="M825.972,586.507C773.31,664.934,683.825,716.658,582.464,716.658c-161.627,0-293.112-131.494-293.112-293.112a291.794,291.794,0,0,1,68.1-187.635L326.045,204.5a335.935,335.935,0,0,0-80.983,219.046c0,186.049,151.361,337.4,337.4,337.4,116.464,0,219.329-59.32,279.991-149.331Z" transform="translate(0 103.733)" fill="#d4d3d2"/>
    <path id="Path_5195" data-name="Path 5195" d="M346.011,595.952a216.286,216.286,0,0,1-46.579-134.244c0-119.918,97.559-217.476,217.468-217.476,75.385,0,141.913,38.57,180.945,97l37.13-25.635C687.789,245.4,607.663,199.117,516.9,199.117c-144.793,0-262.591,117.79-262.591,262.591a261.358,261.358,0,0,0,59.579,166.359Z" transform="translate(65.556 65.57)" fill="#d4d3d2"/>
    <path id="Path_5196" data-name="Path 5196" d="M616.1,246.421c-38.991,58.648-105.64,97.4-181.2,97.4A216.438,216.438,0,0,1,297.91,295.087l-32.034,32.042a261.4,261.4,0,0,0,169.029,61.8c90.941,0,171.213-46.49,218.366-116.933Z" transform="translate(147.559 400.929)" fill="#d4d3d2"/>
  </g>
</svg>
